HIERARCHY
ROOT Hips
{
	OFFSET 0.00000 0.00000 0.00000
	CHANNELS 6 Xposition Yposition Zposition Zrotation Yrotation Xrotation 
	JOINT LHipJoint
	{
		OFFSET 0 0 0
		CHANNELS 3 Zrotation Yrotation Xrotation
		JOINT LeftUpLeg
		{
			OFFSET 1.37959 -1.78713 0.86582
			CHANNELS 3 Zrotation Yrotation Xrotation
			JOINT LeftLeg
			{
				OFFSET 2.54611 -6.99539 0.00000
				CHANNELS 3 Zrotation Yrotation Xrotation
				JOINT LeftFoot
				{
					OFFSET 2.59951 -7.14211 0.00000
					CHANNELS 3 Zrotation Yrotation Xrotation
					JOINT LeftToeBase
					{
						OFFSET 0.18493 -0.50810 1.96120
						CHANNELS 3 Zrotation Yrotation Xrotation
						End Site
						{
							OFFSET 0.00000 -0.00000 1.02054
						}
					}
				}
			}
		}
	}
	JOINT RHipJoint
	{
		OFFSET 0 0 0
		CHANNELS 3 Zrotation Yrotation Xrotation
		JOINT RightUpLeg
		{
			OFFSET -1.33564 -1.78713 0.86582
			CHANNELS 3 Zrotation Yrotation Xrotation
			JOINT RightLeg
			{
				OFFSET -2.52705 -6.94302 0.00000
				CHANNELS 3 Zrotation Yrotation Xrotation
				JOINT RightFoot
				{
					OFFSET -2.55964 -7.03257 0.00000
					CHANNELS 3 Zrotation Yrotation Xrotation
					JOINT RightToeBase
					{
						OFFSET -0.25804 -0.70896 2.12109
						CHANNELS 3 Zrotation Yrotation Xrotation
						End Site
						{
							OFFSET -0.00000 -0.00000 1.11821
						}
					}
				}
			}
		}
	}
	JOINT LowerBack
	{
		OFFSET 0 0 0
		CHANNELS 3 Zrotation Yrotation Xrotation
		JOINT Spine
		{
			OFFSET -0.02031 2.24248 -0.18900
			CHANNELS 3 Zrotation Yrotation Xrotation
			JOINT Spine1
			{
				OFFSET 0.08342 2.24689 -0.03799
				CHANNELS 3 Zrotation Yrotation Xrotation
				JOINT Neck
				{
					OFFSET 0 0 0
					CHANNELS 3 Zrotation Yrotation Xrotation
					JOINT Neck1
					{
						OFFSET -0.11607 1.55844 0.24628
						CHANNELS 3 Zrotation Yrotation Xrotation
						JOINT Head
						{
							OFFSET 0.06877 1.60174 -0.17013
							CHANNELS 3 Zrotation Yrotation Xrotation
							End Site
							{
								OFFSET 0.03358 1.61266 -0.08543
							}
						}
					}
				}
				JOINT LeftShoulder
				{
					OFFSET 0 0 0
					CHANNELS 3 Zrotation Yrotation Xrotation
					JOINT LeftArm
					{
						OFFSET 3.47537 0.55866 -0.72348
						CHANNELS 3 Zrotation Yrotation Xrotation
						JOINT LeftForeArm
						{
							OFFSET 5.38154 -0.00000 0.00000
							CHANNELS 3 Zrotation Yrotation Xrotation
							JOINT LeftHand
							{
								OFFSET 3.33312 -0.00000 0.00000
								CHANNELS 3 Zrotation Yrotation Xrotation
								JOINT LeftFingerBase
								{
									OFFSET 0 0 0
									CHANNELS 3 Zrotation Yrotation Xrotation
									JOINT LeftHandIndex1
									{
										OFFSET 0.71079 -0.00000 0.00000
										CHANNELS 3 Zrotation Yrotation Xrotation
										End Site
										{
											OFFSET 0.57306 -0.00000 0.00000
										}
									}
								}
								JOINT LThumb
								{
									OFFSET 0 0 0
									CHANNELS 3 Zrotation Yrotation Xrotation
									End Site
									{
										OFFSET 0.58181 -0.00000 0.58181
									}
								}
							}
						}
					}
				}
				JOINT RightShoulder
				{
					OFFSET 0 0 0
					CHANNELS 3 Zrotation Yrotation Xrotation
					JOINT RightArm
					{
						OFFSET -3.27844 0.90739 -0.35708
						CHANNELS 3 Zrotation Yrotation Xrotation
						JOINT RightForeArm
						{
							OFFSET -5.16954 -0.00000 0.00000
							CHANNELS 3 Zrotation Yrotation Xrotation
							JOINT RightHand
							{
								OFFSET -3.38287 -0.00000 0.00000
								CHANNELS 3 Zrotation Yrotation Xrotation
								JOINT RightFingerBase
								{
									OFFSET 0 0 0
									CHANNELS 3 Zrotation Yrotation Xrotation
									JOINT RightHandIndex1
									{
										OFFSET -0.81797 -0.00000 0.00000
										CHANNELS 3 Zrotation Yrotation Xrotation
										End Site
										{
											OFFSET -0.65947 -0.00000 0.00000
										}
									}
								}
								JOINT RThumb
								{
									OFFSET 0 0 0
									CHANNELS 3 Zrotation Yrotation Xrotation
									End Site
									{
										OFFSET -0.66953 -0.00000 0.66953
									}
								}
							}
						}
					}
				}
			}
		}
	}
}
MOTION
Frames: 12
Frame Time: .0083333
13.2746 17.9586 3.1335 0 0 0 0 0 0 -21 0 0 0 0 0 0 0 0 0 0 0 0 0 0 21 0 0 0 0 0 0 0 0 0 0 0 0 0 0 0 0 0 0 0 0 0 0 -16 0 0 21 0 0 11 0 0 0 -8 0 0 0 0 0 0 0 0 0 0 0 0 0 0 0 0 0 0 0 0 8 0 0 0 0 0 0 0 0 0 0 0 0 0 0 0 0 0
13.2746 17.9586 3.1335 -167.0550 -79.7767 173.6410 0.0000 0.0000 0.0000 -12.0144 -5.3962 -5.6348 1.6126 8.0076 22.7373 0.9417 2.2176 -19.2583 0.1405 -2.4157 -6.6559 0.0000 0.0000 0.0000 15.3520 -2.0584 -13.6518 -1.5287 -7.8065 22.1278 -0.3077 -5.9969 -14.3834 -0.3562 3.8341 -10.6105 -1.6411 1.1069 3.4820 2.2749 1.4340 0.2740 3.1894 0.7291 -1.7698 -4.5923 3.6304 -13.4566 9.0598 4.4800 11.2337 3.9686 2.6396 5.2625 -0.0000 0.0000 0.0000 -88.1269 0.0971 11.7834 15.1470 -24.3505 -3.2863 -0.0000 -0.0000 10.7474 -2.7950 38.3913 -1.7366 -7.1250 0.0000 -0.0000 -45.3227 62.4812 -21.5328 -0.0000 0.0000 0.0000 77.5970 -10.3852 -11.4632 -25.1676 36.3748 -8.3891 0.0000 -0.0000 -17.6885 -14.5966 18.0874 -4.6224 7.1250 -0.0000 -0.0000 8.8166 -11.4984 6.9672
13.2857 17.9583 3.1008 -165.0960 -80.0612 171.8600 0.0000 0.0000 0.0000 -11.5394 -5.7265 -5.8960 1.6330 8.0557 22.8834 0.9440 2.3264 -19.3322 0.1769 -2.7094 -7.4708 0.0000 0.0000 0.0000 14.6284 1.9858 -11.0611 -1.4203 -7.5368 21.3157 -0.9256 -2.5371 -19.2576 -3.2017 -11.0146 32.3292 -1.4675 1.0613 3.5461 2.5481 1.3810 0.2164 3.3755 0.7022 -1.8641 -4.7214 3.5948 -13.5703 8.8703 4.4804 11.4164 3.9382 2.6251 5.3394 0.0000 0.0000 0.0000 -88.6336 0.3553 13.0557 15.4096 -24.7136 -3.3953 -0.0000 -0.0000 9.5340 -0.9978 39.4997 -0.6347 -7.1250 0.0000 -0.0000 -45.1613 63.7519 -22.7641 0.0000 0.0000 0.0000 77.7151 -10.9297 -11.1053 -25.4094 36.6195 -8.5329 0.0000 -0.0000 -18.2623 -15.2942 17.4012 -4.6753 7.1250 -0.0000 -0.0000 8.3416 -12.1236 6.4743
13.2915 17.9447 3.0705 -165.0660 -80.2582 171.9730 0.0000 0.0000 0.0000 -11.4014 -5.7485 -6.1905 1.6479 8.0905 22.9893 0.9489 2.1285 -19.2860 0.1925 -2.8252 -7.7925 0.0000 0.0000 0.0000 15.4391 -0.3420 -12.6438 -1.4081 -7.5057 21.2225 -0.4421 -5.8874 -16.0935 -0.1330 -2.3508 6.4762 -1.6298 1.0640 3.4129 2.6744 1.3787 0.2678 3.6007 0.7001 -1.7436 -4.8841 3.5867 -13.7223 9.0001 4.4784 11.5871 4.0153 2.6303 5.4108 0.0000 -0.0000 0.0000 -88.9761 0.3350 12.8965 15.2151 -24.4449 -3.3145 -0.0000 -0.0000 10.4761 -1.7962 38.8477 -1.1269 -7.1250 0.0000 -0.0000 -45.0024 63.0717 -21.9638 0.0000 -0.0000 0.0000 77.9899 -11.3097 -10.8318 -25.6953 36.9062 -8.7040 0.0000 -0.0000 -18.8018 -15.6305 16.5951 -4.5686 7.1250 -0.0000 -0.0000 8.1000 -12.9108 6.1485
13.2994 17.9374 3.0419 -165.0280 -80.1179 172.0760 0.0000 0.0000 0.0000 -11.2222 -5.4552 -6.2958 1.6091 7.9993 22.7121 0.9438 1.9475 -19.1529 0.1900 -2.8073 -7.7427 0.0000 0.0000 0.0000 15.8279 -0.7171 -13.1776 -1.4093 -7.5086 21.2311 -0.2910 -6.9571 -15.0465 -0.0412 1.3106 -3.6040 -1.5460 1.1680 3.3409 2.6500 1.5194 0.3199 3.5227 0.7678 -1.6574 -4.8413 3.5245 -13.8506 9.1406 4.3642 11.6353 4.0499 2.5886 5.4540 -0.0000 0.0000 0.0000 -89.0525 0.3280 12.7504 15.0852 -24.2647 -3.2609 -0.0000 -0.0000 11.5182 -3.4688 37.7607 -2.1258 -7.1250 0.0000 -0.0000 -45.1278 61.8546 -20.7562 -0.0000 0.0000 0.0000 78.4308 -11.2835 -10.5496 -25.6220 36.8330 -8.6600 0.0000 -0.0000 -19.5876 -15.8819 16.3609 -4.5821 7.1250 -0.0000 -0.0000 7.9273 -13.1250 5.9788
13.3073 17.9572 3.0083 -163.9880 -79.7340 171.1530 0.0000 0.0000 0.0000 -10.8270 -5.1217 -6.3727 1.5885 7.9506 22.5641 0.9351 1.9939 -19.0893 0.2181 -3.0061 -8.2958 0.0000 0.0000 0.0000 16.2261 -0.0466 -13.2734 -1.4279 -7.5560 21.3734 -0.2650 -7.3843 -15.1072 -0.0541 1.5011 -4.1289 -1.3162 1.3758 3.3534 2.6738 1.8026 0.3739 3.4034 0.9060 -1.6232 -4.8688 3.4599 -13.8339 9.4381 4.2459 11.4598 4.1349 2.5490 5.3983 0.0000 0.0000 0.0000 -89.0465 0.3086 13.1211 15.0617 -24.2320 -3.2512 -0.0000 -0.0000 11.8270 -4.4598 37.4219 -2.7136 -7.1250 0.0000 -0.0000 -45.6182 61.3594 -20.5009 0.0000 0.0000 0.0000 78.8708 -11.2115 -10.2625 -25.4170 36.6272 -8.5375 0.0000 -0.0000 -20.3002 -16.2379 16.3623 -4.6904 7.1250 -0.0000 -0.0000 7.6898 -13.0884 5.8023
13.3114 18.0001 2.9718 -163.5850 -79.5571 170.7250 0.0000 0.0000 0.0000 -10.6139 -4.9005 -6.2248 1.5503 7.8588 22.2861 0.9042 2.1175 -18.8460 0.2367 -3.1310 -8.6438 0.0000 0.0000 0.0000 16.4716 0.5547 -13.2567 -1.4426 -7.5932 21.4852 -0.2261 -7.9684 -15.1679 -0.0913 1.9488 -5.3641 -1.3628 1.4818 3.4703 2.7833 1.9408 0.4286 3.5340 0.9743 -1.6476 -4.8713 3.4336 -13.5486 9.3702 4.2334 11.1185 4.0945 2.5302 5.2468 0.0000 0.0000 0.0000 -89.2600 0.3939 13.9961 15.0846 -24.2639 -3.2606 -0.0000 -0.0000 10.9794 -3.8639 38.0327 -2.3828 -7.1250 0.0000 -0.0000 -45.8467 61.9476 -21.2665 0.0000 0.0000 0.0000 79.2552 -11.3491 -9.9902 -25.3365 36.5460 -8.4895 0.0000 -0.0000 -20.4859 -17.1274 16.3156 -4.9479 7.1250 -0.0000 -0.0000 7.0947 -13.0460 5.3522
13.3226 17.9663 2.9461 -164.4440 -79.9287 171.5470 0.0000 0.0000 0.0000 -10.7655 -5.2109 -6.0610 1.5115 7.7642 22.0002 0.8775 2.2079 -18.6235 0.1943 -2.8384 -7.8292 0.0000 0.0000 0.0000 16.1295 1.1535 -12.6855 -1.4463 -7.6024 21.5128 -0.3864 -7.2551 -16.5882 -0.0649 -1.6440 4.5228 -1.5282 1.3663 3.6840 2.7534 1.7820 0.3622 3.5994 0.8997 -1.8283 -4.5729 3.3765 -13.2844 8.8453 4.1745 10.9685 3.8635 2.4716 5.1794 0.0000 -0.0000 0.0000 -89.4570 0.6738 14.7958 15.0791 -24.2562 -3.2584 -0.0000 -0.0000 10.0645 -2.2885 38.5172 -1.4256 -7.1250 0.0000 -0.0000 -45.0167 62.7045 -21.5890 0.0000 -0.0000 0.0000 79.7574 -11.3473 -9.8940 -25.0377 36.2425 -8.3122 0.0000 -0.0000 -20.2182 -17.7305 16.2118 -5.1009 7.1250 -0.0000 -0.0000 6.6884 -13.0900 5.0350
13.3261 17.9603 2.9321 -166.5900 -80.6719 173.7130 0.0000 0.0000 0.0000 -11.2630 -5.9887 -5.9373 1.4936 7.7203 21.8677 0.8648 2.4026 -18.5913 0.1709 -2.6633 -7.3428 0.0000 0.0000 0.0000 15.3518 1.6530 -12.1423 -1.4415 -7.5904 21.4766 -0.6218 -5.9730 -18.2585 -0.9705 -6.2720 17.5757 -1.8306 1.1169 3.7559 2.6739 1.4371 0.3872 3.7061 0.7300 -1.8225 -4.5056 3.3703 -13.4577 8.5774 4.1930 11.0445 3.7761 2.4693 5.2382 -0.0000 -0.0000 0.0000 -89.7585 0.6662 14.8646 15.0501 -24.2159 -3.2465 -0.0000 -0.0000 10.4355 -1.9561 38.5738 -1.2200 -7.1250 0.0000 -0.0000 -44.7806 62.8331 -21.5848 -0.0000 -0.0000 0.0000 80.1156 -11.0835 -9.5573 -24.6566 35.8510 -8.0879 0.0000 -0.0000 -20.1593 -17.9830 15.9551 -5.0987 7.1250 -0.0000 -0.0000 6.5106 -13.3288 4.8665
13.3291 17.9691 2.9223 -166.2760 -80.9986 173.3900 0.0000 0.0000 0.0000 -11.2437 -6.6323 -5.8756 1.5206 7.7865 22.0676 0.8819 2.6151 -18.8685 0.1718 -2.6702 -7.3619 0.0000 0.0000 0.0000 15.4737 1.3199 -12.4068 -1.4246 -7.5477 21.3483 -0.4973 -6.9920 -17.6837 -0.5372 -4.6962 13.0442 -1.7487 1.0094 3.8258 2.7889 1.2939 0.4904 3.7869 0.6542 -1.7452 -4.6184 3.4463 -13.5871 8.5066 4.3298 11.1130 3.7875 2.5299 5.2703 -0.0000 -0.0000 0.0000 -90.1341 0.6160 15.0584 15.0808 -24.2585 -3.2591 -0.0000 -0.0000 10.8581 -2.7047 38.7077 -1.6921 -7.1250 0.0000 -0.0000 -45.6629 62.7303 -21.9963 -0.0000 -0.0000 0.0000 80.3535 -11.0473 -8.9272 -24.5065 35.6953 -8.0002 0.0000 -0.0000 -20.3537 -18.3209 15.7389 -5.1324 7.1250 -0.0000 -0.0000 6.2764 -13.5173 4.6641
13.3414 17.9692 2.9067 -162.1600 -80.5761 169.3660 0.0000 0.0000 0.0000 -10.3979 -6.8210 -5.7706 1.5138 7.7699 22.0174 0.8787 2.9789 -19.0235 0.1503 -2.4983 -6.8851 0.0000 0.0000 0.0000 16.2519 2.1356 -11.9694 -1.4387 -7.5834 21.4556 -0.6658 -6.0959 -18.8224 -1.2974 -7.2165 20.3583 -0.8743 1.2159 3.9373 2.9233 1.6027 0.4666 3.4123 0.8012 -1.8364 -4.4198 3.3476 -13.3920 8.4066 4.1674 11.0585 3.7048 2.4473 5.2392 -0.0000 -0.0000 0.0000 -90.1116 0.8347 16.1802 15.1934 -24.4149 -3.3055 -0.0000 -0.0000 10.3680 -3.5419 39.0258 -2.2319 -7.1250 0.0000 -0.0000 -46.8748 62.7321 -22.7201 -0.0000 -0.0000 0.0000 80.9003 -11.2093 -8.6579 -24.2888 35.4682 -7.8735 0.0000 -0.0000 -20.3027 -18.6646 16.1338 -5.3624 7.1250 -0.0000 -0.0000 6.0606 -13.0706 4.5591
13.3476 17.9744 2.8891 -159.6250 -80.2312 166.9970 0.0000 0.0000 0.0000 -9.8068 -6.7666 -5.7726 1.4933 7.7195 21.8653 0.8543 3.2910 -18.9490 0.1604 -2.5802 -7.1120 0.0000 0.0000 0.0000 17.3179 1.0120 -12.8716 -1.4557 -7.6260 21.5838 -0.3570 -7.8436 -16.7806 -0.0273 -1.0672 2.9339 -0.2010 1.4082 3.9070 2.9669 1.8856 0.4274 3.0616 0.9363 -1.8581 -4.3066 3.1669 -13.2792 8.5047 3.8828 11.0373 3.6931 2.3165 5.2341 -0.0000 -0.0000 0.0000 -89.9930 1.0480 17.6895 15.3148 -24.5828 -3.3558 -0.0000 -0.0000 9.3247 -3.2115 39.2626 -2.0337 -7.1250 0.0000 -0.0000 -46.8960 62.9853 -23.0076 -0.0000 -0.0000 0.0000 81.5343 -11.4801 -8.3821 -24.1990 35.3740 -7.8215 0.0000 -0.0000 -20.3876 -18.7039 16.4521 -5.4770 7.1250 -0.0000 -0.0000 6.0472 -12.7356 4.5916
